<svg width="64" height="64" viewBox="0 0 64 64" fill="none" xmlns="http://www.w3.org/2000/svg">
<g clip-path="url(#clip0_1458_33220)">
<path d="M64.005 32.004C64.005 49.68 49.682 64.008 32.002 64.008C14.322 64.008 0 49.685 0 32.004C0 14.33 14.323 0 32.002 0C49.678 0 64.005 14.327 64.005 32.004Z" fill="#FFB800"/>
<path d="M27.1638 23.4007C29.4278 28.7378 26.9365 34.8998 21.5993 37.1638C16.2622 39.4278 10.1002 36.9365 7.83622 31.5993C5.57223 26.2622 8.06352 20.1002 13.4007 17.8362C18.7378 15.5722 24.8998 18.0635 27.1638 23.4007Z" fill="white"/>
<path d="M22.1691 29.5946C23.2968 32.2531 22.0558 35.3226 19.3973 36.4503C16.7387 37.5781 13.6693 36.3371 12.5415 33.6785C11.4138 31.02 12.6548 27.9505 15.3133 26.8228C17.9719 25.695 21.0413 26.936 22.1691 29.5946Z" fill="black"/>
<path d="M22.1691 29.5946C23.2968 32.2531 22.0558 35.3226 19.3973 36.4503C16.7387 37.5781 13.6693 36.3371 12.5415 33.6785C11.4138 31.02 12.6548 27.9505 15.3133 26.8228C17.9719 25.695 21.0413 26.936 22.1691 29.5946Z" fill="black"/>
<path opacity="0.8" d="M21.9802 28.8268C21.4532 30.339 19.8001 31.1376 18.2879 30.6106C16.7757 30.0835 15.9771 28.4304 16.5041 26.9183C17.0311 25.4061 18.6842 24.6075 20.1964 25.1345C21.7086 25.6615 22.5072 27.3146 21.9802 28.8268Z" fill="white"/>
<path d="M56.1638 23.4007C58.4278 28.7378 55.9365 34.8998 50.5993 37.1638C45.2622 39.4278 39.1002 36.9365 36.8362 31.5993C34.5722 26.2622 37.0635 20.1002 42.4007 17.8362C47.7378 15.5722 53.8998 18.0635 56.1638 23.4007Z" fill="white"/>
<path d="M51.1691 29.5946C52.2968 32.2531 51.0558 35.3226 48.3973 36.4503C45.7387 37.5781 42.6693 36.3371 41.5415 33.6785C40.4138 31.02 41.6548 27.9505 44.3133 26.8228C46.9719 25.695 50.0413 26.936 51.1691 29.5946Z" fill="black"/>
<path d="M51.1691 29.5946C52.2968 32.2531 51.0558 35.3226 48.3973 36.4503C45.7387 37.5781 42.6693 36.3371 41.5415 33.6785C40.4138 31.02 41.6548 27.9505 44.3133 26.8228C46.9719 25.695 50.0413 26.936 51.1691 29.5946Z" fill="black"/>
<path opacity="0.8" d="M50.9802 28.8268C50.4532 30.339 48.8001 31.1376 47.2879 30.6106C45.7757 30.0835 44.9771 28.4304 45.5041 26.9183C46.0311 25.4061 47.6842 24.6075 49.1964 25.1345C50.7086 25.6615 51.5072 27.3146 50.9802 28.8268Z" fill="white"/>
<path d="M48 47C45 44 40.8366 40 32 40C23.1634 40 19 44 16 47" stroke="black" stroke-width="3.69231" stroke-linecap="round"/>
</g>
<defs>
<clipPath id="clip0_1458_33220">
<rect width="64" height="64" fill="white"/>
</clipPath>
</defs>
</svg>
