<svg width="64" height="64" viewBox="0 0 64 64" fill="none" xmlns="http://www.w3.org/2000/svg">
<g clip-path="url(#clip0_1458_33215)">
<path d="M63.904 32C63.904 49.622 49.624 63.9 32.002 63.9C14.377 63.9 0.0979996 49.622 0.0979996 32C0.0979996 14.381 14.377 0.0979996 32.002 0.0979996C49.624 0.0979996 63.904 14.381 63.904 32Z" fill="#FFB800"/>
<path d="M27.1638 23.4007C29.4278 28.7378 26.9365 34.8998 21.5993 37.1638C16.2622 39.4278 10.1002 36.9365 7.83622 31.5993C5.57223 26.2622 8.06352 20.1002 13.4007 17.8362C18.7378 15.5722 24.8998 18.0635 27.1638 23.4007Z" fill="white"/>
<path d="M22.168 25.5947C23.2957 28.2532 22.0548 31.3226 19.3962 32.4504C16.7376 33.5781 13.6682 32.3372 12.5405 29.6786C11.4127 27.02 12.6537 23.9506 15.3122 22.8229C17.9708 21.6951 21.0402 22.9361 22.168 25.5947Z" fill="black"/>
<path d="M22.168 25.5947C23.2957 28.2532 22.0548 31.3226 19.3962 32.4504C16.7376 33.5781 13.6682 32.3372 12.5405 29.6786C11.4127 27.02 12.6537 23.9506 15.3122 22.8229C17.9708 21.6951 21.0402 22.9361 22.168 25.5947Z" fill="black"/>
<path opacity="0.8" d="M21.9803 24.827C21.4532 26.3392 19.8001 27.1378 18.288 26.6108C16.7758 26.0837 15.9772 24.4306 16.5042 22.9184C17.0312 21.4063 18.6843 20.6076 20.1965 21.1347C21.7087 21.6617 22.5073 23.3148 21.9803 24.827Z" fill="white"/>
<path d="M56.1638 23.4007C58.4278 28.7378 55.9365 34.8998 50.5993 37.1638C45.2622 39.4278 39.1002 36.9365 36.8362 31.5993C34.5722 26.2622 37.0635 20.1002 42.4007 17.8362C47.7378 15.5722 53.8998 18.0635 56.1638 23.4007Z" fill="white"/>
<path d="M51.168 25.5947C52.2957 28.2532 51.0548 31.3226 48.3962 32.4504C45.7376 33.5781 42.6682 32.3372 41.5405 29.6786C40.4127 27.02 41.6537 23.9506 44.3122 22.8229C46.9708 21.6951 50.0402 22.9361 51.168 25.5947Z" fill="black"/>
<path d="M51.168 25.5947C52.2957 28.2532 51.0548 31.3226 48.3962 32.4504C45.7376 33.5781 42.6682 32.3372 41.5405 29.6786C40.4127 27.02 41.6537 23.9506 44.3122 22.8229C46.9708 21.6951 50.0402 22.9361 51.168 25.5947Z" fill="black"/>
<path opacity="0.8" d="M50.9803 24.827C50.4532 26.3392 48.8001 27.1378 47.288 26.6108C45.7758 26.0837 44.9772 24.4306 45.5042 22.9184C46.0312 21.4063 47.6843 20.6076 49.1965 21.1347C50.7087 21.6617 51.5073 23.3148 50.9803 24.827Z" fill="white"/>
<path d="M48 43C45 46 40.8366 50 32 50C23.1634 50 19 46 16 43" stroke="black" stroke-width="3.69231" stroke-linecap="round"/>
</g>
<defs>
<clipPath id="clip0_1458_33215">
<rect width="64" height="64" fill="white"/>
</clipPath>
</defs>
</svg>
