<svg width="64" height="64" viewBox="0 0 64 64" fill="none" xmlns="http://www.w3.org/2000/svg">
<g clip-path="url(#clip0_1458_33203)">
<path d="M31.981 63.962C49.6436 63.962 63.962 49.6436 63.962 31.981C63.962 14.3184 49.6436 0 31.981 0C14.3184 0 0 14.3184 0 31.981C0 49.6436 14.3184 63.962 31.981 63.962Z" fill="#FB3125"/>
<path d="M27.1638 27.4007C29.4278 32.7378 26.9365 38.8998 21.5993 41.1638C16.2622 43.4278 10.1002 40.9365 7.83622 35.5993C5.57223 30.2622 8.06352 24.1002 13.4007 21.8362C18.7378 19.5722 24.8998 22.0635 27.1638 27.4007Z" fill="white"/>
<path d="M22.168 29.5947C23.2957 32.2532 22.0547 35.3226 19.3962 36.4504C16.7376 37.5781 13.6682 36.3372 12.5404 33.6786C11.4127 31.02 12.6537 27.9506 15.3122 26.8229C17.9708 25.6951 21.0402 26.9361 22.168 29.5947Z" fill="black"/>
<path d="M22.168 29.5947C23.2957 32.2532 22.0547 35.3226 19.3962 36.4504C16.7376 37.5781 13.6682 36.3372 12.5404 33.6786C11.4127 31.02 12.6537 27.9506 15.3122 26.8229C17.9708 25.6951 21.0402 26.9361 22.168 29.5947Z" fill="black"/>
<path opacity="0.8" d="M21.9803 28.827C21.4532 30.3392 19.8001 31.1378 18.2879 30.6108C16.7758 30.0837 15.9771 28.4306 16.5042 26.9184C17.0312 25.4063 18.6843 24.6076 20.1965 25.1347C21.7087 25.6617 22.5073 27.3148 21.9803 28.827Z" fill="white"/>
<path d="M56.1638 27.4007C58.4278 32.7378 55.9365 38.8998 50.5993 41.1638C45.2622 43.4278 39.1002 40.9365 36.8362 35.5993C34.5722 30.2622 37.0635 24.1002 42.4007 21.8362C47.7378 19.5722 53.8998 22.0635 56.1638 27.4007Z" fill="white"/>
<path d="M51.168 29.5947C52.2957 32.2532 51.0547 35.3226 48.3962 36.4504C45.7376 37.5781 42.6682 36.3372 41.5404 33.6786C40.4127 31.02 41.6537 27.9506 44.3122 26.8229C46.9708 25.6951 50.0402 26.9361 51.168 29.5947Z" fill="black"/>
<path d="M51.168 29.5947C52.2957 32.2532 51.0547 35.3226 48.3962 36.4504C45.7376 37.5781 42.6682 36.3372 41.5404 33.6786C40.4127 31.02 41.6537 27.9506 44.3122 26.8229C46.9708 25.6951 50.0402 26.9361 51.168 29.5947Z" fill="black"/>
<path opacity="0.8" d="M50.9803 28.827C50.4532 30.3392 48.8001 31.1378 47.2879 30.6108C45.7758 30.0837 44.9771 28.4306 45.5042 26.9184C46.0312 25.4063 47.6843 24.6076 49.1965 25.1347C50.7087 25.6617 51.5073 27.3148 50.9803 28.827Z" fill="white"/>
<path fill-rule="evenodd" clip-rule="evenodd" d="M38 52.8462C36.9804 52.8462 36.1539 52.0196 36.1539 51C36.1539 48.7059 34.2941 46.8462 32 46.8462C29.7059 46.8462 27.8462 48.7059 27.8462 51C27.8462 52.0196 27.0196 52.8462 26 52.8462C24.9804 52.8462 24.1539 52.0196 24.1539 51C24.1539 46.6667 27.6667 43.1538 32 43.1538C36.3333 43.1538 39.8462 46.6667 39.8462 51C39.8462 52.0196 39.0196 52.8462 38 52.8462Z" fill="black"/>
<path fill-rule="evenodd" clip-rule="evenodd" d="M57.7141 17.3144C58.0928 18.261 57.6323 19.3354 56.6856 19.7141L36.6856 27.7141C35.739 28.0928 34.6646 27.6323 34.2859 26.6856C33.9072 25.739 34.3677 24.6646 35.3144 24.2859L55.3144 16.2859C56.261 15.9072 57.3354 16.3677 57.7141 17.3144Z" fill="black"/>
<path fill-rule="evenodd" clip-rule="evenodd" d="M6.28589 17.3144C5.90722 18.261 6.36768 19.3354 7.31436 19.7141L27.3144 27.7141C28.261 28.0928 29.3354 27.6323 29.7141 26.6856C30.0928 25.739 29.6323 24.6646 28.6856 24.2859L8.68565 16.2859C7.73897 15.9072 6.66456 16.3677 6.28589 17.3144Z" fill="black"/>
</g>
<defs>
<clipPath id="clip0_1458_33203">
<rect width="64" height="64" fill="white"/>
</clipPath>
</defs>
</svg>
