<svg width="64" height="64" viewBox="0 0 64 64" fill="none" xmlns="http://www.w3.org/2000/svg">
<g clip-path="url(#clip0_1458_33194)">
<path d="M63.957 31.98C63.957 49.64 49.641 63.959 31.978 63.959C14.314 63.959 0 49.641 0 31.98C0 14.316 14.314 0 31.979 0C49.641 0 63.957 14.316 63.957 31.98Z" fill="#FFB800"/>
<line x1="15.8462" y1="42.1538" x2="47.1538" y2="42.1538" stroke="black" stroke-width="3.69231" stroke-linecap="round"/>
<path d="M27.1638 23.4007C29.4278 28.7378 26.9365 34.8998 21.5993 37.1638C16.2622 39.4278 10.1002 36.9365 7.83622 31.5993C5.57223 26.2622 8.06352 20.1002 13.4007 17.8362C18.7378 15.5722 24.8998 18.0635 27.1638 23.4007Z" fill="white"/>
<path d="M24.1691 22.5946C25.2968 25.2531 24.0558 28.3226 21.3973 29.4503C18.7387 30.5781 15.6693 29.3371 14.5415 26.6785C13.4138 24.02 14.6548 20.9505 17.3133 19.8228C19.9719 18.695 23.0413 19.936 24.1691 22.5946Z" fill="black"/>
<path d="M24.1691 22.5946C25.2968 25.2531 24.0558 28.3226 21.3973 29.4503C18.7387 30.5781 15.6693 29.3371 14.5415 26.6785C13.4138 24.02 14.6548 20.9505 17.3133 19.8228C19.9719 18.695 23.0413 19.936 24.1691 22.5946Z" fill="black"/>
<path opacity="0.8" d="M23.9802 21.8268C23.4532 23.339 21.8001 24.1376 20.2879 23.6106C18.7757 23.0835 17.9771 21.4304 18.5041 19.9183C19.0311 18.4061 20.6842 17.6075 22.1964 18.1345C23.7086 18.6615 24.5072 20.3146 23.9802 21.8268Z" fill="white"/>
<path d="M56.1638 23.4007C58.4278 28.7378 55.9365 34.8998 50.5993 37.1638C45.2622 39.4278 39.1002 36.9365 36.8362 31.5993C34.5722 26.2622 37.0635 20.1002 42.4007 17.8362C47.7378 15.5722 53.8998 18.0635 56.1638 23.4007Z" fill="white"/>
<path d="M53.1691 22.5946C54.2968 25.2531 53.0558 28.3226 50.3973 29.4503C47.7387 30.5781 44.6693 29.3371 43.5415 26.6785C42.4138 24.02 43.6548 20.9505 46.3133 19.8228C48.9719 18.695 52.0413 19.936 53.1691 22.5946Z" fill="black"/>
<path d="M53.1691 22.5946C54.2968 25.2531 53.0558 28.3226 50.3973 29.4503C47.7387 30.5781 44.6693 29.3371 43.5415 26.6785C42.4138 24.02 43.6548 20.9505 46.3133 19.8228C48.9719 18.695 52.0413 19.936 53.1691 22.5946Z" fill="black"/>
<path opacity="0.8" d="M52.9802 21.8268C52.4532 23.339 50.8001 24.1376 49.2879 23.6106C47.7757 23.0835 46.9771 21.4304 47.5041 19.9183C48.0311 18.4061 49.6842 17.6075 51.1964 18.1345C52.7086 18.6615 53.5072 20.3146 52.9802 21.8268Z" fill="white"/>
</g>
<defs>
<clipPath id="clip0_1458_33194">
<rect width="64" height="64" fill="white"/>
</clipPath>
</defs>
</svg>
