<svg width="64" height="64" viewBox="0 0 64 64" fill="none" xmlns="http://www.w3.org/2000/svg">
<g clip-path="url(#clip0_1458_33210)">
<path d="M63.66 31.765C63.66 49.252 49.484 63.426 31.998 63.426C14.511 63.426 0.335999 49.252 0.335999 31.765C0.335999 14.276 14.511 0.103001 31.998 0.103001C49.484 0.103001 63.66 14.276 63.66 31.765Z" fill="#FFB800"/>
<g filter="url(#filter0_i_1458_33210)">
<path d="M8.97726 38C7.00475 38 5.55077 39.856 6.28382 41.6872C10.3453 51.8333 20.268 59 31.8646 59C43.4613 59 53.384 51.8333 57.4455 41.6872C58.1785 39.856 56.7245 38 54.752 38H8.97726Z" fill="#A71627"/>
</g>
<path d="M57.603 40.2865C52.641 42.5513 42.1531 45.1544 31.9604 45.1522C21.6941 45.15 11.0496 42.5143 6.14159 40.2048C6.39289 38.9729 7.54918 38 8.97727 38H54.752C56.2115 38 57.3871 39.0161 57.603 40.2865Z" fill="white"/>
<path d="M57.9881 20.3449C60.2324 25.6356 57.7628 31.7438 52.4721 33.9881C47.1815 36.2324 41.0732 33.7628 38.8289 28.4721C36.5847 23.1815 39.0543 17.0732 44.3449 14.8289C49.6356 12.5847 55.7438 15.0543 57.9881 20.3449Z" fill="white"/>
<path d="M53.0358 22.5198C54.1537 25.1552 52.9236 28.1979 50.2882 29.3158C47.6528 30.4337 44.6101 29.2035 43.4922 26.5681C42.3743 23.9327 43.6044 20.8901 46.2398 19.7721C48.8752 18.6542 51.9179 19.8844 53.0358 22.5198Z" fill="black"/>
<path d="M53.0358 22.5198C54.1537 25.1552 52.9236 28.1979 50.2882 29.3158C47.6528 30.4337 44.6101 29.2035 43.4922 26.5681C42.3743 23.9327 43.6044 20.8901 46.2398 19.7721C48.8752 18.6542 51.9179 19.8844 53.0358 22.5198Z" fill="black"/>
<path opacity="0.8" d="M52.8498 21.7588C52.3273 23.2578 50.6886 24.0495 49.1896 23.527C47.6906 23.0046 46.899 21.3659 47.4214 19.8669C47.9438 18.3679 49.5825 17.5762 51.0815 18.0986C52.5805 18.6211 53.3722 20.2598 52.8498 21.7588Z" fill="white"/>
<path d="M24.9881 21.069C27.2324 26.3597 24.7628 32.468 19.4721 34.7122C14.1815 36.9565 8.0732 34.4869 5.82893 29.1962C3.58467 23.9056 6.05425 17.7973 11.3449 15.5531C16.6356 13.3088 22.7438 15.7784 24.9881 21.069Z" fill="white"/>
<path d="M20.0358 23.2439C21.1537 25.8793 19.9236 28.922 17.2882 30.0399C14.6528 31.1578 11.6101 29.9277 10.4922 27.2923C9.37426 24.6569 10.6044 21.6142 13.2398 20.4963C15.8752 19.3783 18.9179 20.6085 20.0358 23.2439Z" fill="black"/>
<path d="M20.0358 23.2439C21.1537 25.8793 19.9236 28.922 17.2882 30.0399C14.6528 31.1578 11.6101 29.9277 10.4922 27.2923C9.37426 24.6569 10.6044 21.6142 13.2398 20.4963C15.8752 19.3783 18.9179 20.6085 20.0358 23.2439Z" fill="black"/>
<path opacity="0.8" d="M19.8498 22.4829C19.3273 23.9819 17.6886 24.7736 16.1896 24.2511C14.6906 23.7287 13.899 22.09 14.4214 20.591C14.9438 19.092 16.5825 18.3003 18.0815 18.8228C19.5805 19.3452 20.3722 20.9839 19.8498 22.4829Z" fill="white"/>
</g>
<defs>
<filter id="filter0_i_1458_33210" x="6.09082" y="38" width="51.5476" height="25.4721" filterUnits="userSpaceOnUse" color-interpolation-filters="sRGB">
<feFlood flood-opacity="0" result="BackgroundImageFix"/>
<feBlend mode="normal" in="SourceGraphic" in2="BackgroundImageFix" result="shape"/>
<feColorMatrix in="SourceAlpha" type="matrix" values="0 0 0 0 0 0 0 0 0 0 0 0 0 0 0 0 0 0 127 0" result="hardAlpha"/>
<feOffset dy="4.47208"/>
<feGaussianBlur stdDeviation="4.15265"/>
<feComposite in2="hardAlpha" operator="arithmetic" k2="-1" k3="1"/>
<feColorMatrix type="matrix" values="0 0 0 0 0 0 0 0 0 0 0 0 0 0 0 0 0 0 0.25 0"/>
<feBlend mode="normal" in2="shape" result="effect1_innerShadow_1458_33210"/>
</filter>
<clipPath id="clip0_1458_33210">
<rect width="64" height="64" fill="white"/>
</clipPath>
</defs>
</svg>
